<svg version="1.1" id="Layer_1" xmlns="http://www.w3.org/2000/svg" xmlns:xlink="http://www.w3.org/1999/xlink" x="0px" y="0px"
	 width="100%" viewBox="0 0 1024 1024" enable-background="new 0 0 1024 1024" xml:space="preserve">
<path fill="#000000" opacity="1.000000" stroke="none" 
	d="
M707.174011,403.649811 
	C758.007935,411.812103 807.486267,423.657043 855.248901,441.830566 
	C888.381714,454.437439 920.094116,469.878571 947.175781,493.412567 
	C948.174927,494.280823 949.138611,495.194122 950.062134,496.141724 
	C950.239685,496.323822 950.151428,496.764984 950.187439,497.101715 
	C949.253418,498.137238 948.295044,497.440430 947.491455,497.009033 
	C913.169495,478.584045 876.182373,467.665955 838.679382,458.108368 
	C799.907410,448.227386 760.486755,441.895691 720.912354,436.524414 
	C692.224060,432.630646 663.355896,430.361877 634.482605,428.085144 
	C577.424805,423.585999 520.291931,423.745239 463.157593,424.511627 
	C435.363525,424.884399 407.587891,426.678528 379.856812,428.919495 
	C347.510010,431.533447 315.218964,434.614197 283.111298,439.378204 
	C253.967316,443.702515 225.005096,449.002777 196.316757,455.775940 
	C165.328140,463.092224 134.770401,471.784790 105.345520,484.077087 
	C97.210152,487.475677 89.325790,491.473816 81.310547,495.162689 
	C80.167320,495.688812 79.195107,496.906738 77.575333,496.221161 
	C76.996063,494.053314 78.991020,493.479492 80.088707,492.514130 
	C100.460098,474.598633 123.971107,461.754639 148.584198,450.880432 
	C194.049652,430.793518 241.814590,418.261902 290.429108,408.720428 
	C313.924622,404.109039 337.571625,400.363739 361.370087,397.673920 
	C365.375183,397.221191 367.455017,395.553040 367.350494,391.420471 
	C366.912689,374.104675 368.203918,356.788483 367.349609,339.472351 
	C367.267548,337.809082 367.183685,336.145660 367.072296,334.484192 
	C366.814850,330.645386 368.111176,328.269379 372.444153,328.787567 
	C376.366119,329.256592 377.619537,327.494110 377.726166,323.635468 
	C378.277985,303.665924 378.845154,283.691132 379.899811,263.744263 
	C380.251282,257.097198 380.763031,250.459030 380.708618,243.803162 
	C380.656372,237.410461 382.193207,230.818985 378.330261,225.129410 
	C386.007355,220.059433 393.445190,219.150848 401.501556,225.343628 
	C402.099152,226.685623 399.977386,227.995300 399.252533,229.713440 
	C397.874298,232.980331 398.480225,236.226685 398.870667,239.540848 
	C399.825562,247.645905 399.458160,255.816895 400.029602,263.963287 
	C401.030731,278.235535 400.908264,292.584747 401.352020,306.898773 
	C401.537567,312.883240 402.060181,318.857330 402.243713,324.841797 
	C402.325958,327.523956 403.298401,328.853607 406.077179,328.837128 
	C415.909393,328.778717 425.742432,328.722870 435.574249,328.792084 
	C439.455109,328.819397 439.711304,326.448090 439.707062,323.502106 
	C439.678162,303.335785 439.702240,283.169373 439.722168,263.002991 
	C439.729340,255.768356 439.745667,255.773209 446.932526,255.765503 
	C453.765656,255.758179 460.598785,255.732620 467.431915,255.729553 
	C469.473114,255.728638 471.470581,255.756332 472.451782,253.406525 
	C477.032654,242.435867 486.463531,236.732391 496.454651,231.910858 
	C512.697388,224.072372 512.828491,224.106125 528.951416,232.197723 
	C539.133179,237.307663 549.003845,242.943756 554.080139,254.020279 
	C555.071655,256.183716 557.111694,255.747437 558.887024,255.754059 
	C565.886780,255.780121 572.886780,255.719528 579.886597,255.739655 
	C586.054443,255.757370 586.239868,255.944061 586.245605,262.310425 
	C586.263733,282.476776 586.395203,302.644806 586.156677,322.808319 
	C586.098755,327.704193 587.706421,329.157837 592.464417,328.966248 
	C601.284485,328.611053 610.127441,328.728699 618.959351,328.812500 
	C622.313660,328.844360 623.604919,327.642303 623.750183,324.154724 
	C624.920349,296.053345 626.239075,267.958038 627.578308,239.864029 
	C627.833740,234.506775 627.779114,229.273911 624.408447,225.314758 
	C632.181763,219.358627 639.659546,219.587677 646.877563,224.697784 
	C643.069702,243.996002 646.662109,263.605164 647.050232,283.201141 
	C647.304138,296.016418 648.020569,308.822998 648.233398,321.638367 
	C648.310486,326.276672 648.912720,329.575623 654.713440,328.963104 
	C657.753479,328.642090 658.620728,330.576599 658.601746,333.400421 
	C658.477295,351.897705 658.437073,370.395599 658.392212,388.893341 
	C658.373169,396.749329 658.458191,396.628937 666.278992,397.703339 
	C679.781555,399.558289 693.253357,401.637421 707.174011,403.649811 
M478.038452,316.611816 
	C476.098663,320.208618 475.313599,324.052490 475.322754,328.133209 
	C475.363159,346.126068 475.326538,364.119080 475.350525,382.112000 
	C475.359131,388.550293 475.564117,388.713745 482.259277,388.710144 
	C502.251312,388.699432 522.243347,388.671631 542.235352,388.671906 
	C550.310181,388.672028 550.622559,388.470520 550.653198,380.359344 
	C550.719360,362.866425 550.595642,345.372284 550.755249,327.880493 
	C550.813904,321.452698 548.513000,316.258636 544.104126,311.770416 
	C537.164001,304.705414 528.428650,300.657867 519.536560,296.781555 
	C515.208252,294.894775 511.189697,294.569061 506.682922,296.437592 
	C495.819275,300.941650 485.245483,305.721405 478.038452,316.611816 
z"/>
</svg>